<svg xmlns="http://www.w3.org/2000/svg" xmlns:xlink="http://www.w3.org/1999/xlink" width="500" zoomAndPan="magnify" viewBox="0 0 375 374.999991" height="500" preserveAspectRatio="xMidYMid meet" version="1.0"><defs><clipPath id="id1"><path d="M 90 267 L 262 267 L 262 337.5 L 90 337.5 Z M 90 267 " clip-rule="nonzero"/></clipPath><clipPath id="id2"><path d="M 26.019531 37.5 L 326 37.5 L 326 298 L 26.019531 298 Z M 26.019531 37.5 " clip-rule="nonzero"/></clipPath></defs><g clip-path="url(#id1)"><path fill="#38b6ff" d="M 122.402344 282.175781 C 110.046875 289.308594 99.09375 298.933594 90.320312 310.605469 C 114.621094 327.535156 144.144531 337.464844 176.019531 337.464844 C 207.863281 337.464844 237.417969 327.535156 261.6875 310.605469 C 252.949219 298.933594 241.992188 289.308594 229.636719 282.175781 C 213.632812 272.925781 195.203125 267.839844 176.019531 267.839844 C 156.804688 267.839844 138.375 272.925781 122.402344 282.175781 Z M 122.402344 282.175781 " fill-opacity="1" fill-rule="evenodd"/></g><path fill="#38b6ff" d="M 134.347656 229.171875 C 144.996094 239.820312 159.742188 246.40625 176.019531 246.40625 C 192.300781 246.40625 207.011719 239.820312 217.691406 229.171875 C 228.339844 218.488281 234.929688 203.78125 234.929688 187.5 C 234.929688 171.21875 228.339844 156.476562 217.691406 145.828125 C 207.011719 135.144531 192.300781 128.558594 176.019531 128.558594 C 159.742188 128.558594 144.996094 135.144531 134.347656 145.828125 C 123.664062 156.476562 117.078125 171.21875 117.078125 187.5 C 117.078125 203.78125 123.664062 218.488281 134.347656 229.171875 Z M 134.347656 229.171875 " fill-opacity="1" fill-rule="evenodd"/><g clip-path="url(#id2)"><path fill="#38b6ff" d="M 119.195312 244.292969 C 104.65625 229.753906 95.644531 209.683594 95.644531 187.5 C 95.644531 165.316406 104.65625 145.214844 119.195312 130.675781 C 133.734375 116.136719 153.835938 107.125 176.019531 107.125 C 198.203125 107.125 218.273438 116.136719 232.8125 130.675781 C 247.386719 145.214844 256.363281 165.316406 256.363281 187.5 C 256.363281 209.683594 247.386719 229.753906 232.8125 244.292969 C 229.09375 248.046875 224.960938 251.460938 220.527344 254.394531 C 227.351562 256.917969 233.972656 260.027344 240.253906 263.675781 C 254.929688 272.140625 267.898438 283.472656 278.339844 297.160156 C 279.605469 296 280.832031 294.769531 282.0625 293.539062 C 309.195312 266.40625 325.984375 228.898438 325.984375 187.5 C 325.984375 146.066406 309.195312 108.558594 282.0625 81.425781 C 254.929688 54.292969 217.417969 37.5 176.019531 37.5 C 134.585938 37.5 97.078125 54.292969 69.945312 81.425781 C 42.8125 108.558594 26.019531 146.066406 26.019531 187.5 C 26.019531 228.898438 42.8125 266.40625 69.945312 293.539062 C 71.175781 294.769531 72.4375 296 73.699219 297.160156 C 84.109375 283.472656 97.113281 272.140625 111.753906 263.675781 C 118.066406 260.027344 124.65625 256.917969 131.515625 254.394531 C 127.078125 251.460938 122.949219 248.046875 119.195312 244.292969 Z M 119.195312 244.292969 " fill-opacity="1" fill-rule="evenodd"/></g></svg>